ffmpeg started on 2022-05-10 at 02:36:43
Report written to "ffmpeg-20220510-023643.log"
ffmpeg version 4.2.6 Copyright (c) 2000-2022 the FFmpeg developers
  built with gcc 8 (GCC)
  configuration: --prefix=/usr --bindir=/usr/bin --datadir=/usr/share/ffmpeg --docdir=/usr/share/doc/ffmpeg --incdir=/usr/include/ffmpeg --libdir=/usr/lib64 --mandir=/usr/share/man --arch=x86_64 --optflags='-O2 -g -pipe -Wall -Werror=format-security -Wp,-D_FORTIFY_SOURCE=2 -Wp,-D_GLIBCXX_ASSERTIONS -fexceptions -fstack-protector-strong -grecord-gcc-switches -specs=/usr/lib/rpm/redhat/redhat-hardened-cc1 -specs=/usr/lib/rpm/redhat/redhat-annobin-cc1 -m64 -mtune=generic -fasynchronous-unwind-tables -fstack-clash-protection -fcf-protection' --extra-ldflags='-Wl,-z,relro -Wl,-z,now -specs=/usr/lib/rpm/redhat/redhat-hardened-ld ' --extra-cflags=' ' --enable-libopencore-amrnb --enable-libopencore-amrwb --enable-libvo-amrwbenc --enable-version3 --enable-bzlib --disable-crystalhd --enable-fontconfig --enable-frei0r --enable-gcrypt --enable-gnutls --enable-ladspa --enable-libaom --enable-libdav1d --enable-libass --enable-libbluray --enable-libcdio --enable-libdrm --enable-libjack --enable-libfreetype --enable-libfribidi --enable-libgsm --enable-libmp3lame --enable-nvenc --enable-openal --enable-opencl --enable-opengl --enable-libopenjpeg --enable-libopus --enable-libpulse --enable-librsvg --enable-libsrt --enable-libsoxr --enable-libspeex --enable-libssh --enable-libtheora --enable-libvorbis --enable-libv4l2 --enable-libvidstab --enable-libvmaf --enable-version3 --enable-vapoursynth --enable-libvpx --enable-libx264 --enable-libx265 --enable-libxvid --enable-libzimg --enable-libzvbi --enable-avfilter --enable-avresample --enable-libmodplug --enable-postproc --enable-pthreads --disable-static --enable-shared --enable-gpl --disable-debug --disable-stripping --shlibdir=/usr/lib64 --enable-libmfx --enable-runtime-cpudetect
  libavutil      56. 31.100 / 56. 31.100
  libavcodec     58. 54.100 / 58. 54.100
  libavformat    58. 29.100 / 58. 29.100
  libavdevice    58.  8.100 / 58.  8.100
  libavfilter     7. 57.100 /  7. 57.100
  libavresample   4.  0.  0 /  4.  0.  0
  libswscale      5.  5.100 /  5.  5.100
  libswresample   3.  5.100 /  3.  5.100
  libpostproc    55.  5.100 / 55.  5.100
Input #0, matroska,webm, from 'uhd1.webm':
  Metadata:
    encoder         : google/video-file
  Duration: 00:05:13.78, start: 0.000000, bitrate: 25462 kb/s
    Stream #0:0(eng): Video: vp9 (Profile 0), yuv420p(tv, bt709), 3840x2160, SAR 1:1 DAR 16:9, 59.94 fps, 59.94 tbr, 1k tbn, 1k tbc (default)
    Side data:
      Content Light Level Metadata, MaxCLL=1100, MaxFALL=180
Stream mapping:
  Stream #0:0 -> #0:0 (vp9 (native) -> h264 (libx264))
Press [q] to stop, [?] for help
[libx264 @ 0x561a834b62c0] Application has requested 32 threads. Using a thread count greater than 16 is not recommended.
[libx264 @ 0x561a834b62c0] using SAR=1/1
[libx264 @ 0x561a834b62c0] using cpu capabilities: MMX2 SSE2Fast SSSE3 SSE4.2 AVX FMA3 BMI2 AVX2 AVX512
[libx264 @ 0x561a834b62c0] profile Constrained Baseline, level 5.2, 4:2:0, 8-bit
[libx264 @ 0x561a834b62c0] 264 - core 157 r2980 34c06d1 - H.264/MPEG-4 AVC codec - Copyleft 2003-2019 - http://www.videolan.org/x264.html - options: cabac=0 ref=1 deblock=0:0:0 analyse=0:0 me=dia subme=0 psy=0 mixed_ref=0 me_range=16 chroma_me=1 trellis=0 8x8dct=0 cqm=0 deadzone=21,11 fast_pskip=1 chroma_qp_offset=0 threads=32 lookahead_threads=5 sliced_threads=0 nr=0 decimate=1 interlaced=0 bluray_compat=0 constrained_intra=0 bframes=0 weightp=0 keyint=120 keyint_min=12 scenecut=0 intra_refresh=0 rc_lookahead=0 rc=abr mbtree=0 bitrate=100000 ratetol=1.0 qcomp=0.60 qpmin=0 qpmax=69 qpstep=4 vbv_maxrate=200000 vbv_bufsize=200000 nal_hrd=none filler=0 ip_ratio=1.40 aq=0
Output #0, mp4, to 'uhd7.mp4':
  Metadata:
    encoder         : Lavf58.29.100
    Stream #0:0(eng): Video: h264 (libx264) (avc1 / 0x31637661), yuv420p, 3840x2160 [SAR 1:1 DAR 16:9], q=-1--1, 100000 kb/s, 59.94 fps, 19001 tbn, 59.94 tbc (default)
    Metadata:
      encoder         : Lavc58.54.100 libx264
    Side data:
      cpb: bitrate max/min/avg: 200000000/0/100000000 buffer size: 200000000 vbv_delay: -1
      Content Light Level Metadata, MaxCLL=1100, MaxFALL=180
frame=   25 fps=0.0 q=0.0 size=       0kB time=00:00:00.00 bitrate=N/A speed=   0x    frame=   70 fps= 68 q=16.0 size=    7424kB time=00:00:00.60 bitrate=101252.8kbits/s speed=0.58x    frame=  115 fps= 74 q=16.0 size=   16640kB time=00:00:01.35 bitrate=100869.4kbits/s speed=0.873x    frame=  145 fps= 69 q=17.0 size=   22784kB time=00:00:01.85 bitrate=100786.5kbits/s speed=0.887x    frame=  187 fps= 72 q=18.0 size=   33024kB time=00:00:02.55 bitrate=105983.2kbits/s speed=0.982x    frame=  229 fps= 74 q=19.0 size=   42240kB time=00:00:03.25 bitrate=106362.8kbits/s speed=1.04x    frame=  261 fps= 72 q=19.0 size=   48896kB time=00:00:03.78 bitrate=105766.7kbits/s speed=1.05x    frame=  299 fps= 73 q=18.0 size=   56832kB time=00:00:04.42 bitrate=105305.1kbits/s speed=1.07x    frame=  337 fps= 73 q=18.0 size=   64512kB time=00:00:05.05 bitrate=104544.4kbits/s speed=1.09x    frame=  377 fps= 73 q=18.0 size=   72448kB time=00:00:05.72 bitrate=103713.6kbits/s speed=1.11x    frame=  423 fps= 75 q=16.0 size=   81408kB time=00:00:06.48 bitrate=102759.3kbits/s speed=1.15x    frame=  473 fps= 77 q=15.0 size=   88064kB time=00:00:07.32 bitrate=98500.4kbits/s speed=1.19x    frame=  509 fps= 76 q=14.0 size=   91648kB time=00:00:07.92 bitrate=94740.1kbits/s speed=1.19x    frame=  555 fps= 77 q=13.0 size=   97280kB time=00:00:08.69 bitrate=91683.4kbits/s speed=1.21x    frame=  598 fps= 78 q=12.0 size=  103424kB time=00:00:09.40 bitrate=90042.4kbits/s speed=1.23x    frame=  645 fps= 79 q=12.0 size=  111616kB time=00:00:10.19 bitrate=89699.6kbits/s speed=1.25x    frame=  697 fps= 80 q=12.0 size=  120832kB time=00:00:11.06 bitrate=89489.8kbits/s speed=1.27x    frame=  733 fps= 80 q=11.0 size=  127744kB time=00:00:11.66 bitrate=89736.4kbits/s speed=1.27x    frame=  764 fps= 79 q=17.0 size=  133888kB time=00:00:12.17 bitrate=90058.4kbits/s speed=1.25x    frame=  800 fps= 78 q=18.0 size=  146432kB time=00:00:12.77 bitrate=93867.0kbits/s speed=1.25x    frame=  838 fps= 78 q=17.0 size=  158208kB time=00:00:13.41 bitrate=96622.4kbits/s speed=1.25x    frame=  869 fps= 77 q=17.0 size=  166912kB time=00:00:13.93 bitrate=98153.7kbits/s speed=1.24x    frame=  911 fps= 78 q=18.0 size=  177664kB time=00:00:14.63 bitrate=99473.1kbits/s speed=1.24x    frame=  949 fps= 77 q=18.0 size=  187648kB time=00:00:15.26 bitrate=100699.8kbits/s speed=1.25x    frame=  978 fps= 77 q=18.0 size=  195072kB time=00:00:15.74 bitrate=101467.9kbits/s speed=1.23x    frame= 1018 fps= 77 q=18.0 size=  205568kB time=00:00:16.41 bitrate=102580.8kbits/s speed=1.24x    frame= 1059 fps= 77 q=18.0 size=  215808kB time=00:00:17.10 bitrate=103383.1kbits/s speed=1.24x    frame= 1096 fps= 77 q=18.0 size=  224000kB time=00:00:17.71 bitrate=103568.9kbits/s speed=1.24x    frame= 1137 fps= 77 q=19.0 size=  231680kB time=00:00:18.40 bitrate=103138.1kbits/s speed=1.24x    frame= 1171 fps= 76 q=20.0 size=  239616kB time=00:00:18.96 bitrate=103481.2kbits/s speed=1.24x    frame= 1208 fps= 76 q=21.0 size=  250880kB time=00:00:19.58 bitrate=104931.0kbits/s speed=1.24x    frame= 1236 fps= 76 q=21.0 size=  260864kB time=00:00:20.05 bitrate=106565.3kbits/s speed=1.23x    frame= 1274 fps= 76 q=21.0 size=  271872kB time=00:00:20.68 bitrate=107658.6kbits/s speed=1.23x    frame= 1319 fps= 76 q=21.0 size=  284928kB time=00:00:21.43 bitrate=108877.5kbits/s speed=1.23x    frame= 1347 fps= 75 q=22.0 size=  292608kB time=00:00:21.90 bitrate=109427.8kbits/s speed=1.22x    frame= 1382 fps= 75 q=22.0 size=  302080kB time=00:00:22.48 bitrate=110036.9kbits/s speed=1.22x    frame= 1415 fps= 75 q=22.0 size=  310784kB time=00:00:23.03 bitrate=110502.3kbits/s speed=1.22x    frame= 1450 fps= 75 q=23.0 size=  320256kB time=00:00:23.62 bitrate=111055.5kbits/s speed=1.22x    frame= 1493 fps= 75 q=23.0 size=  332544kB time=00:00:24.34 bitrate=111918.0kbits/s speed=1.22x    frame= 1530 fps= 75 q=23.0 size=  341760kB time=00:00:24.95 bitrate=112175.0kbits/s speed=1.22x    frame= 1564 fps= 75 q=26.0 size=  350464kB time=00:00:25.52 bitrate=112475.6kbits/s speed=1.22x    frame= 1590 fps= 74 q=23.0 size=  356864kB time=00:00:25.95 bitrate=112615.8kbits/s speed=1.21x    frame= 1624 fps= 74 q=23.0 size=  365056kB time=00:00:26.52 bitrate=112737.6kbits/s speed=1.21x    frame= 1662 fps= 74 q=19.0 size=  373504kB time=00:00:27.16 bitrate=112654.2kbits/s speed=1.21x    frame= 1708 fps= 74 q=19.0 size=  378624kB time=00:00:27.92 bitrate=111060.4kbits/s speed=1.22x    frame= 1752 fps= 75 q=19.0 size=  382720kB time=00:00:28.66 bitrate=109386.7kbits/s speed=1.22x    frame= 1796 fps= 75 q=17.0 size=  386304kB time=00:00:29.39 bitrate=107653.9kbits/s speed=1.23x    frame= 1842 fps= 75 q=18.0 size=  391168kB time=00:00:30.16 bitrate=106235.9kbits/s speed=1.23x    frame= 1887 fps= 75 q=16.0 size=  395264kB time=00:00:30.91 bitrate=104741.4kbits/s speed=1.24x    frame= 1929 fps= 76 q=18.0 size=  398848kB time=00:00:31.61 bitrate=103348.6kbits/s speed=1.24x    frame= 1969 fps= 76 q=17.0 size=  404480kB time=00:00:32.28 bitrate=102641.4kbits/s speed=1.24x    frame= 2010 fps= 76 q=17.0 size=  408832kB time=00:00:32.96 bitrate=101593.2kbits/s speed=1.24x    frame= 2048 fps= 76 q=19.0 size=  413184kB time=00:00:33.60 bitrate=100737.4kbits/s speed=1.24x    frame= 2088 fps= 76 q=18.0 size=  420096kB time=00:00:34.26 bitrate=100428.0kbits/s speed=1.24x    frame= 2127 fps= 76 q=18.0 size=  426496kB time=00:00:34.91 bitrate=100058.1kbits/s speed=1.24x    frame= 2159 fps= 76 q=18.0 size=  431872kB time=00:00:35.45 bitrate=99793.6kbits/s speed=1.24x    frame= 2189 fps= 75 q=18.0 size=  437504kB time=00:00:35.95 bitrate=99687.6kbits/s speed=1.24x    frame= 2231 fps= 75 q=18.0 size=  445184kB time=00:00:36.65 bitrate=99498.4kbits/s speed=1.24x    frame= 2270 fps= 75 q=19.0 size=  451840kB time=00:00:37.30 bitrate=99224.6kbits/s speed=1.24x    frame= 2299 fps= 75 q=18.0 size=  457728kB time=00:00:37.78 bitrate=99230.7kbits/s speed=1.23x    frame= 2335 fps= 75 q=18.0 size=  465152kB time=00:00:38.38 bitrate=99262.4kbits/s speed=1.23x    frame= 2374 fps= 75 q=18.0 size=  471808kB time=00:00:39.03 bitrate=99004.8kbits/s speed=1.23x    frame= 2410 fps= 75 q=18.0 size=  478208kB time=00:00:39.63 bitrate=98827.3kbits/s speed=1.23x    frame= 2439 fps= 75 q=18.0 size=  484864kB time=00:00:40.12 bitrate=98994.6kbits/s speed=1.23x    frame= 2474 fps= 75 q=19.0 size=  493312kB time=00:00:40.70 bitrate=99274.7kbits/s speed=1.23x    frame= 2507 fps= 74 q=19.0 size=  502784kB time=00:00:41.25 bitrate=99830.7kbits/s speed=1.22x    frame= 2545 fps= 74 q=20.0 size=  512000kB time=00:00:41.89 bitrate=100122.1kbits/s speed=1.22x    frame= 2591 fps= 75 q=15.0 size=  520448kB time=00:00:42.65 bitrate=99943.2kbits/s speed=1.23x    frame= 2632 fps= 75 q=14.0 size=  522496kB time=00:00:43.34 bitrate=98753.0kbits/s speed=1.23x    frame= 2675 fps= 75 q=14.0 size=  525056kB time=00:00:44.06 bitrate=97621.1kbits/s speed=1.23x    frame= 2719 fps= 75 q=13.0 size=  527360kB time=00:00:44.79 bitrate=96442.7kbits/s speed=1.23x    frame= 2765 fps= 75 q=17.0 size=  531200kB time=00:00:45.56 bitrate=95508.7kbits/s speed=1.24x    frame= 2803 fps= 75 q=15.0 size=  540672kB time=00:00:46.19 bitrate=95877.7kbits/s speed=1.24x    frame= 2851 fps= 75 q=16.0 size=  550912kB time=00:00:46.99 bitrate=96028.9kbits/s speed=1.24x    frame= 2887 fps= 75 q=16.0 size=  558848kB time=00:00:47.59 bitrate=96183.1kbits/s speed=1.24x    frame= 2920 fps= 75 q=16.0 size=  566528kB time=00:00:48.14 bitrate=96389.9kbits/s speed=1.24x    frame= 2959 fps= 75 q=16.0 size=  574976kB time=00:00:48.79 bitrate=96522.9kbits/s speed=1.24x    frame= 2999 fps= 75 q=15.0 size=  583680kB time=00:00:49.46 bitrate=96662.2kbits/s speed=1.24x    frame= 3039 fps= 75 q=15.0 size=  592640kB time=00:00:50.13 bitrate=96839.6kbits/s speed=1.24x    frame= 3077 fps= 75 q=15.0 size=  600576kB time=00:00:50.76 bitrate=96910.9kbits/s speed=1.24x    frame= 3116 fps= 75 q=15.0 size=  608512kB time=00:00:51.41 bitrate=96949.0kbits/s speed=1.24x    frame= 3157 fps= 75 q=15.0 size=  617216kB time=00:00:52.10 bitrate=97044.7kbits/s speed=1.24x    frame= 3197 fps= 75 q=15.0 size=  624384kB time=00:00:52.76 bitrate=96930.2kbits/s speed=1.24x    frame= 3236 fps= 75 q=15.0 size=  631552kB time=00:00:53.42 bitrate=96848.9kbits/s speed=1.25x    frame= 3275 fps= 75 q=15.0 size=  638976kB time=00:00:54.07 bitrate=96808.2kbits/s speed=1.25x    frame= 3315 fps= 75 q=16.0 size=  646400kB time=00:00:54.73 bitrate=96739.1kbits/s speed=1.25x    frame= 3355 fps= 76 q=15.0 size=  654080kB time=00:00:55.40 bitrate=96709.4kbits/s speed=1.25x    frame= 3394 fps= 76 q=16.0 size=  662016kB time=00:00:56.05 bitrate=96746.7kbits/s speed=1.25x    frame= 3431 fps= 76 q=16.0 size=  668160kB time=00:00:56.67 bitrate=96581.0kbits/s speed=1.25x    frame= 3469 fps= 76 q=16.0 size=  674560kB time=00:00:57.30 bitrate=96427.4kbits/s speed=1.25x    frame= 3498 fps= 75 q=16.0 size=  679424kB time=00:00:57.79 bitrate=96309.6kbits/s speed=1.24x    frame= 3529 fps= 75 q=16.0 size=  685312kB time=00:00:58.30 bitrate=96282.6kbits/s speed=1.24x    frame= 3566 fps= 75 q=16.0 size=  692224kB time=00:00:58.92 bitrate=96234.9kbits/s speed=1.24x    frame= 3601 fps= 75 q=16.0 size=  698880kB time=00:00:59.50 bitrate=96206.9kbits/s speed=1.24x    frame= 3636 fps= 75 q=16.0 size=  705792kB time=00:01:00.09 bitrate=96214.3kbits/s speed=1.24x    frame= 3671 fps= 75 q=15.0 size=  711936kB time=00:01:00.67 bitrate=96117.9kbits/s speed=1.24x    frame= 3709 fps= 75 q=16.0 size=  718592kB time=00:01:01.31 bitrate=96013.4kbits/s speed=1.24x    frame= 3752 fps= 75 q=13.0 size=  726016kB time=00:01:02.02 bitrate=95883.4kbits/s speed=1.24x    frame= 3796 fps= 75 q=14.0 size=  732416kB time=00:01:02.76 bitrate=95597.3kbits/s speed=1.24x    frame= 3833 fps= 75 q=13.0 size=  737536kB time=00:01:03.38 bitrate=95328.1kbits/s speed=1.24x    frame= 3869 fps= 75 q=12.0 size=  742912kB time=00:01:03.98 bitrate=95121.5kbits/s speed=1.24x    frame= 3916 fps= 75 q=13.0 size=  750592kB time=00:01:04.76 bitrate=94941.3kbits/s speed=1.24x    frame= 3961 fps= 75 q=13.0 size=  758016kB time=00:01:05.51 bitrate=94781.7kbits/s speed=1.25x    frame= 3989 fps= 75 q=13.0 size=  762624kB time=00:01:05.98 bitrate=94682.7kbits/s speed=1.24x    frame= 4032 fps= 75 q=16.0 size=  770304kB time=00:01:06.70 bitrate=94607.6kbits/s speed=1.24x    frame= 4066 fps= 75 q=15.0 size=  777728kB time=00:01:07.26 bitrate=94714.0kbits/s speed=1.24x    frame= 4099 fps= 75 q=15.0 size=  786944kB time=00:01:07.81 bitrate=95058.3kbits/s speed=1.24x    frame= 4135 fps= 75 q=15.0 size=  796928kB time=00:01:08.41 bitrate=95419.3kbits/s speed=1.24x    frame= 4171 fps= 75 q=15.0 size=  806144kB time=00:01:09.01 bitrate=95682.8kbits/s speed=1.24x    frame= 4207 fps= 75 q=16.0 size=  815616kB time=00:01:09.61 bitrate=95971.9kbits/s speed=1.24x    frame= 4235 fps= 75 q=15.0 size=  823296kB time=00:01:10.08 bitrate=96229.9kbits/s speed=1.24x    frame= 4269 fps= 75 q=16.0 size=  831488kB time=00:01:10.65 bitrate=96407.2kbits/s speed=1.24x    frame= 4311 fps= 75 q=15.0 size=  842240kB time=00:01:11.35 bitrate=96694.9kbits/s speed=1.24x    frame= 4342 fps= 75 q=14.0 size=  849152kB time=00:01:11.87 bitrate=96786.9kbits/s speed=1.23x    frame= 4385 fps= 75 q=16.0 size=  859392kB time=00:01:12.58 bitrate=96986.0kbits/s speed=1.24x    frame= 4421 fps= 75 q=15.0 size=  867840kB time=00:01:13.18 bitrate=97135.7kbits/s speed=1.24x    frame= 4451 fps= 75 q=16.0 size=  874752kB time=00:01:13.69 bitrate=97244.4kbits/s speed=1.23x    frame= 4483 fps= 74 q=16.0 size=  883200kB time=00:01:14.22 bitrate=97477.3kbits/s speed=1.23x    frame= 4524 fps= 74 q=17.0 size=  893696kB time=00:01:14.90 bitrate=97735.0kbits/s speed=1.23x    frame= 4561 fps= 74 q=16.0 size=  902912kB time=00:01:15.52 bitrate=97935.9kbits/s speed=1.23x    frame= 4587 fps= 74 q=16.0 size=  909824kB time=00:01:15.95 bitrate=98122.0kbits/s speed=1.23x    frame= 4637 fps= 74 q=14.0 size=  923136kB time=00:01:16.79 bitrate=98476.3kbits/s speed=1.23x    frame= 4682 fps= 75 q=13.0 size=  928000kB time=00:01:17.54 bitrate=98036.7kbits/s speed=1.23x    frame= 4715 fps= 74 q=13.0 size=  932352kB time=00:01:18.09 bitrate=97802.1kbits/s speed=1.23x    frame= 4758 fps= 75 q=13.0 size=  937472kB time=00:01:18.81 bitrate=97444.0kbits/s speed=1.24x    frame= 4800 fps= 75 q=12.0 size=  942592kB time=00:01:19.51 bitrate=97112.8kbits/s speed=1.24x    frame= 4844 fps= 75 q=13.0 size=  948736kB time=00:01:20.24 bitrate=96851.7kbits/s speed=1.24x    frame= 4891 fps= 75 q=12.0 size=  955392kB time=00:01:21.03 bitrate=96587.4kbits/s speed=1.24x    frame= 4929 fps= 75 q=12.0 size=  961536kB time=00:01:21.66 bitrate=96453.9kbits/s speed=1.24x    frame= 4970 fps= 75 q=11.0 size=  969984kB time=00:01:22.34 bitrate=96493.1kbits/s speed=1.24x    frame= 5009 fps= 75 q=13.0 size=  976384kB time=00:01:22.99 bitrate=96368.4kbits/s speed=1.24x    frame= 5051 fps= 75 q=12.0 size=  984064kB time=00:01:23.70 bitrate=96313.3kbits/s speed=1.24x    frame= 5094 fps= 75 q=12.0 size=  992768kB time=00:01:24.41 bitrate=96339.4kbits/s speed=1.24x    frame= 5130 fps= 75 q=14.0 size=  998912kB time=00:01:25.01 bitrate=96250.9kbits/s speed=1.24x    frame= 5167 fps= 75 q=14.0 size= 1005056kB time=00:01:25.63 bitrate=96144.8kbits/s speed=1.24x    frame= 5200 fps= 75 q=14.0 size= 1010688kB time=00:01:26.18 bitrate=96066.0kbits/s speed=1.24x    frame= 5230 fps= 75 q=14.0 size= 1016320kB time=00:01:26.68 bitrate=96043.6kbits/s speed=1.24x    frame= 5272 fps= 75 q=15.0 size= 1025792kB time=00:01:27.38 bitrate=96161.4kbits/s speed=1.24x    frame= 5305 fps= 75 q=15.0 size= 1033984kB time=00:01:27.93 bitrate=96322.5kbits/s speed=1.24x    frame= 5341 fps= 75 q=15.0 size= 1043456kB time=00:01:28.53 bitrate=96545.5kbits/s speed=1.24x    frame= 5382 fps= 75 q=14.0 size= 1053440kB time=00:01:29.22 bitrate=96722.0kbits/s speed=1.24x    frame= 5413 fps= 75 q=15.0 size= 1059584kB time=00:01:29.73 bitrate=96725.4kbits/s speed=1.24x    frame= 5449 fps= 75 q=15.0 size= 1068032kB time=00:01:30.34 bitrate=96848.5kbits/s speed=1.24x    frame= 5489 fps= 75 q=14.0 size= 1075968kB time=00:01:31.00 bitrate=96852.7kbits/s speed=1.24x    frame= 5525 fps= 75 q=19.0 size= 1083648kB time=00:01:31.60 bitrate=96904.4kbits/s speed=1.24x    frame= 5549 fps= 74 q=17.0 size= 1093376kB time=00:01:32.00 bitrate=97348.9kbits/s speed=1.23x    frame= 5592 fps= 75 q=18.0 size= 1112576kB time=00:01:32.72 bitrate=98292.0kbits/s speed=1.24x    frame= 5627 fps= 75 q=19.0 size= 1126400kB time=00:01:33.30 bitrate=98890.5kbits/s speed=1.24x    frame= 5657 fps= 74 q=19.0 size= 1137152kB time=00:01:33.81 bitrate=99301.9kbits/s speed=1.23x    frame= 5689 fps= 74 q=19.0 size= 1149696kB time=00:01:34.34 bitrate=99829.1kbits/s speed=1.23x    frame= 5729 fps= 74 q=19.0 size= 1164032kB time=00:01:35.01 bitrate=100364.0kbits/s speed=1.23x    frame= 5764 fps= 74 q=22.0 size= 1175040kB time=00:01:35.59 bitrate=100694.3kbits/s speed=1.23x    frame= 5787 fps= 74 q=19.0 size= 1182464kB time=00:01:35.97 bitrate=100925.4kbits/s speed=1.23x    frame= 5821 fps= 74 q=19.0 size= 1193984kB time=00:01:36.54 bitrate=101309.9kbits/s speed=1.23x    frame= 5860 fps= 74 q=19.0 size= 1205760kB time=00:01:37.19 bitrate=101624.2kbits/s speed=1.23x    frame= 5891 fps= 74 q=18.0 size= 1213952kB time=00:01:37.71 bitrate=101773.1kbits/s speed=1.23x    frame= 5921 fps= 74 q=18.0 size= 1221888kB time=00:01:38.21 bitrate=101916.4kbits/s speed=1.23x    frame= 5959 fps= 74 q=15.0 size= 1229824kB time=00:01:38.84 bitrate=101920.5kbits/s speed=1.23x    frame= 5997 fps= 74 q=16.0 size= 1236736kB time=00:01:39.48 bitrate=101840.2kbits/s speed=1.23x    frame= 6037 fps= 74 q=16.0 size= 1242880kB time=00:01:40.15 bitrate=101664.1kbits/s speed=1.23x    frame= 6076 fps= 74 q=16.0 size= 1248512kB time=00:01:40.80 bitrate=101465.6kbits/s speed=1.23x    frame= 6115 fps= 74 q=17.0 size= 1255168kB time=00:01:41.45 bitrate=101352.3kbits/s speed=1.23x    frame= 6151 fps= 74 q=15.0 size= 1261312kB time=00:01:42.05 bitrate=101249.1kbits/s speed=1.23x    frame= 6192 fps= 74 q=15.0 size= 1268224kB time=00:01:42.73 bitrate=101126.1kbits/s speed=1.23x    frame= 6231 fps= 74 q=16.0 size= 1274112kB time=00:01:43.38 bitrate=100956.2kbits/s speed=1.23x    frame= 6267 fps= 74 q=16.0 size= 1280256kB time=00:01:43.98 bitrate=100857.1kbits/s speed=1.23x    frame= 6305 fps= 74 q=16.0 size= 1287168kB time=00:01:44.62 bitrate=100787.2kbits/s speed=1.23x    frame= 6353 fps= 74 q=16.0 size= 1295360kB time=00:01:45.42 bitrate=100658.2kbits/s speed=1.23x    frame= 6380 fps= 74 q=16.0 size= 1300224kB time=00:01:45.87 bitrate=100606.3kbits/s speed=1.23x    frame= 6416 fps= 74 q=16.0 size= 1306880kB time=00:01:46.47 bitrate=100550.9kbits/s speed=1.23x    frame= 6452 fps= 74 q=18.0 size= 1313280kB time=00:01:47.07 bitrate=100476.5kbits/s speed=1.23x    frame= 6487 fps= 74 q=19.0 size= 1322240kB time=00:01:47.65 bitrate=100613.3kbits/s speed=1.23x    frame= 6534 fps= 74 q=20.0 size= 1337344kB time=00:01:48.44 bitrate=101026.8kbits/s speed=1.23x    frame= 6565 fps= 74 q=20.0 size= 1347072kB time=00:01:48.95 bitrate=101278.7kbits/s speed=1.23x    frame= 6601 fps= 74 q=21.0 size= 1359616kB time=00:01:49.55 bitrate=101661.4kbits/s speed=1.23x    frame= 6624 fps= 74 q=21.0 size= 1368064kB time=00:01:49.94 bitrate=101936.1kbits/s speed=1.22x    frame= 6654 fps= 74 q=21.0 size= 1379840kB time=00:01:50.44 bitrate=102347.6kbits/s speed=1.22x    frame= 6697 fps= 74 q=22.0 size= 1395712kB time=00:01:51.16 bitrate=102856.8kbits/s speed=1.22x    frame= 6728 fps= 74 q=20.0 size= 1407232kB time=00:01:51.67 bitrate=103225.5kbits/s speed=1.22x    frame= 6759 fps= 74 q=17.0 size= 1419520kB time=00:01:52.19 bitrate=103646.9kbits/s speed=1.22x    frame= 6804 fps= 74 q=16.0 size= 1428480kB time=00:01:52.94 bitrate=103607.8kbits/s speed=1.22x    frame= 6842 fps= 74 q=15.0 size= 1435136kB time=00:01:53.58 bitrate=103509.6kbits/s speed=1.22x    frame= 6891 fps= 74 q=17.0 size= 1444352kB time=00:01:54.39 bitrate=103429.8kbits/s speed=1.22x    frame= 6935 fps= 74 q=18.0 size= 1451520kB time=00:01:55.13 bitrate=103280.4kbits/s speed=1.23x    frame= 6974 fps= 74 q=15.0 size= 1457664kB time=00:01:55.78 bitrate=103134.7kbits/s speed=1.23x    frame= 7010 fps= 74 q=18.0 size= 1463808kB time=00:01:56.38 bitrate=103035.0kbits/s speed=1.23x    frame= 7049 fps= 74 q=16.0 size= 1469952kB time=00:01:57.03 bitrate=102892.2kbits/s speed=1.23x    frame= 7091 fps= 74 q=17.0 size= 1477632kB time=00:01:57.73 bitrate=102814.2kbits/s speed=1.23x    frame= 7133 fps= 74 q=17.0 size= 1485312kB time=00:01:58.43 bitrate=102737.1kbits/s speed=1.23x    frame= 7179 fps= 74 q=15.0 size= 1491712kB time=00:01:59.20 bitrate=102515.5kbits/s speed=1.23x    frame= 7227 fps= 74 q=13.0 size= 1497856kB time=00:02:00.00 bitrate=102250.9kbits/s speed=1.23x    frame= 7270 fps= 74 q=16.0 size= 1503232kB time=00:02:00.72 bitrate=102008.0kbits/s speed=1.23x    frame= 7317 fps= 74 q=13.0 size= 1509120kB time=00:02:01.50 bitrate=101746.7kbits/s speed=1.23x    frame= 7365 fps= 74 q=16.0 size= 1515264kB time=00:02:02.30 bitrate=101492.1kbits/s speed=1.24x    frame= 7408 fps= 74 q=15.0 size= 1519872kB time=00:02:03.02 bitrate=101207.1kbits/s speed=1.24x    frame= 7455 fps= 75 q=15.0 size= 1524992kB time=00:02:03.80 bitrate=100904.9kbits/s speed=1.24x    frame= 7500 fps= 75 q=14.0 size= 1529856kB time=00:02:04.55 bitrate=100616.6kbits/s speed=1.24x    frame= 7547 fps= 75 q=11.0 size= 1534720kB time=00:02:05.34 bitrate=100305.0kbits/s speed=1.24x    frame= 7597 fps= 75 q=10.0 size= 1540608kB time=00:02:06.17 bitrate=100024.2kbits/s speed=1.24x    frame= 7652 fps= 75 q=10.0 size= 1545984kB time=00:02:07.09 bitrate=99648.6kbits/s speed=1.25x    frame= 7693 fps= 75 q=14.0 size= 1550080kB time=00:02:07.77 bitrate=99377.7kbits/s speed=1.25x    frame= 7726 fps= 75 q=15.0 size= 1555456kB time=00:02:08.32 bitrate=99294.6kbits/s speed=1.25x    frame= 7774 fps= 75 q=17.0 size= 1562880kB time=00:02:09.12 bitrate=99149.8kbits/s speed=1.25x    frame= 7806 fps= 75 q=19.0 size= 1568512kB time=00:02:09.66 bitrate=99097.3kbits/s speed=1.25x    frame= 7834 fps= 75 q=18.0 size= 1576192kB time=00:02:10.13 bitrate=99225.1kbits/s speed=1.24x    frame= 7875 fps= 75 q=16.0 size= 1585920kB time=00:02:10.81 bitrate=99315.4kbits/s speed=1.24x    frame= 7916 fps= 75 q=16.0 size= 1594112kB time=00:02:11.49 bitrate=99309.2kbits/s speed=1.25x    frame= 7951 fps= 75 q=16.0 size= 1601280kB time=00:02:12.08 bitrate=99314.7kbits/s speed=1.24x    frame= 7997 fps= 75 q=16.0 size= 1610496kB time=00:02:12.84 bitrate=99309.3kbits/s speed=1.25x    frame= 8034 fps= 75 q=17.0 size= 1617664kB time=00:02:13.46 bitrate=99290.0kbits/s speed=1.25x    frame= 8063 fps= 75 q=17.0 size= 1624576kB time=00:02:13.95 bitrate=99354.0kbits/s speed=1.24x    frame= 8102 fps= 75 q=18.0 size= 1634304kB time=00:02:14.60 bitrate=99465.8kbits/s speed=1.24x    frame= 8143 fps= 75 q=19.0 size= 1645568kB time=00:02:15.28 bitrate=99645.0kbits/s speed=1.25x    frame= 8173 fps= 75 q=19.0 size= 1654528kB time=00:02:15.78 bitrate=99818.3kbits/s speed=1.24x    frame= 8200 fps= 75 q=19.0 size= 1663744kB time=00:02:16.23 bitrate=100042.4kbits/s speed=1.24x    frame= 8239 fps= 75 q=21.0 size= 1676800kB time=00:02:16.88 bitrate=100348.2kbits/s speed=1.24x    frame= 8275 fps= 75 q=22.0 size= 1693184kB time=00:02:17.48 bitrate=100886.1kbits/s speed=1.24x    frame= 8302 fps= 75 q=22.0 size= 1706240kB time=00:02:17.93 bitrate=101332.0kbits/s speed=1.24x    frame= 8342 fps= 75 q=22.0 size= 1726720kB time=00:02:18.60 bitrate=102054.6kbits/s speed=1.24x    frame= 8377 fps= 75 q=23.0 size= 1743872kB time=00:02:19.18 bitrate=102635.9kbits/s speed=1.24x    frame= 8409 fps= 75 q=24.0 size= 1757696kB time=00:02:19.72 bitrate=103054.3kbits/s speed=1.24x    frame= 8436 fps= 74 q=25.0 size= 1769216kB time=00:02:20.17 bitrate=103396.3kbits/s speed=1.24x    frame= 8467 fps= 74 q=24.0 size= 1781504kB time=00:02:20.69 bitrate=103731.7kbits/s speed=1.24x    frame= 8504 fps= 74 q=17.0 size= 1796352kB time=00:02:21.30 bitrate=104139.4kbits/s speed=1.24x    frame= 8547 fps= 74 q=17.0 size= 1807872kB time=00:02:22.02 bitrate=104277.8kbits/s speed=1.24x    frame= 8593 fps= 74 q=16.0 size= 1812736kB time=00:02:22.79 bitrate=103996.5kbits/s speed=1.24x    frame= 8632 fps= 74 q=16.0 size= 1816320kB time=00:02:23.44 bitrate=103729.4kbits/s speed=1.24x    frame= 8674 fps= 75 q=17.0 size= 1820928kB time=00:02:24.14 bitrate=103487.1kbits/s speed=1.24x    frame= 8725 fps= 75 q=17.0 size= 1826048kB time=00:02:24.99 bitrate=103169.1kbits/s speed=1.24x    frame= 8768 fps= 75 q=16.0 size= 1830656kB time=00:02:25.71 bitrate=102920.2kbits/s speed=1.24x    frame= 8799 fps= 75 q=19.0 size= 1834496kB time=00:02:26.22 bitrate=102771.3kbits/s speed=1.24x    frame= 8835 fps= 75 q=19.0 size= 1839616kB time=00:02:26.83 bitrate=102636.6kbits/s speed=1.24x    frame= 8875 fps= 75 q=19.0 size= 1845760kB time=00:02:27.49 bitrate=102513.4kbits/s speed=1.24x    frame= 8907 fps= 75 q=19.0 size= 1850880kB time=00:02:28.03 bitrate=102427.1kbits/s speed=1.24x    frame= 8947 fps= 75 q=18.0 size= 1857536kB time=00:02:28.69 bitrate=102334.1kbits/s speed=1.24x    frame= 8983 fps= 75 q=18.0 size= 1863168kB time=00:02:29.29 bitrate=102231.4kbits/s speed=1.24x    frame= 9012 fps= 75 q=19.0 size= 1867776kB time=00:02:29.78 bitrate=102153.3kbits/s speed=1.24x    frame= 9044 fps= 74 q=20.0 size= 1873152kB time=00:02:30.31 bitrate=102083.4kbits/s speed=1.24x    frame= 9083 fps= 74 q=17.0 size= 1879040kB time=00:02:30.96 bitrate=101963.0kbits/s speed=1.24x    frame= 9120 fps= 74 q=16.0 size= 1882624kB time=00:02:31.58 bitrate=101741.4kbits/s speed=1.24x    frame= 9158 fps= 74 q=18.0 size= 1886976kB time=00:02:32.21 bitrate=101551.9kbits/s speed=1.24x    frame= 9204 fps= 75 q=17.0 size= 1892352kB time=00:02:32.98 bitrate=101330.4kbits/s speed=1.24x    frame= 9239 fps= 75 q=17.0 size= 1895936kB time=00:02:33.57 bitrate=101136.3kbits/s speed=1.24x    frame= 9270 fps= 74 q=17.0 size= 1899776kB time=00:02:34.08 bitrate=101001.0kbits/s speed=1.24x    frame= 9308 fps= 74 q=18.0 size= 1906432kB time=00:02:34.72 bitrate=100939.5kbits/s speed=1.24x    frame= 9347 fps= 74 q=17.0 size= 1913344kB time=00:02:35.37 bitrate=100881.3kbits/s speed=1.24x    frame= 9387 fps= 74 q=17.0 size= 1919488kB time=00:02:36.03 bitrate=100772.4kbits/s speed=1.24x    frame= 9429 fps= 74 q=16.0 size= 1927680kB time=00:02:36.73 bitrate=100750.0kbits/s speed=1.24x    frame= 9470 fps= 75 q=17.0 size= 1934592kB time=00:02:37.42 bitrate=100671.9kbits/s speed=1.24x    frame= 9500 fps= 74 q=17.0 size= 1939968kB time=00:02:37.92 bitrate=100631.8kbits/s speed=1.24x    frame= 9537 fps= 74 q=17.0 size= 1947392kB time=00:02:38.54 bitrate=100623.6kbits/s speed=1.24x    frame= 9575 fps= 74 q=17.0 size= 1954560kB time=00:02:39.17 bitrate=100591.7kbits/s speed=1.24x    frame= 9618 fps= 74 q=16.0 size= 1961984kB time=00:02:39.89 bitrate=100520.7kbits/s speed=1.24x    frame= 9651 fps= 74 q=17.0 size= 1967616kB time=00:02:40.44 bitrate=100463.4kbits/s speed=1.24x    frame= 9691 fps= 74 q=16.0 size= 1973760kB time=00:02:41.11 bitrate=100359.6kbits/s speed=1.24x    frame= 9733 fps= 75 q=17.0 size= 1980416kB time=00:02:41.81 bitrate=100262.0kbits/s speed=1.24x    frame= 9776 fps= 75 q=20.0 size= 1989120kB time=00:02:42.52 bitrate=100258.2kbits/s speed=1.24x    frame= 9812 fps= 75 q=20.0 size= 1999872kB time=00:02:43.12 bitrate=100429.0kbits/s speed=1.24x    frame= 9845 fps= 74 q=21.0 size= 2009344kB time=00:02:43.68 bitrate=100565.3kbits/s speed=1.24x    frame= 9869 fps= 74 q=20.0 size= 2016256kB time=00:02:44.08 bitrate=100665.0kbits/s speed=1.24x    frame= 9909 fps= 74 q=20.0 size= 2027776kB time=00:02:44.74 bitrate=100830.0kbits/s speed=1.24x    frame= 9945 fps= 74 q=20.0 size= 2038016kB time=00:02:45.34 bitrate=100971.1kbits/s speed=1.24x    frame= 9982 fps= 74 q=20.0 size= 2048768kB time=00:02:45.96 bitrate=101126.3kbits/s speed=1.24x    frame=10009 fps= 74 q=21.0 size= 2057728kB time=00:02:46.41 bitrate=101293.6kbits/s speed=1.23x    frame=10044 fps= 74 q=16.0 size= 2068480kB time=00:02:47.00 bitrate=101466.9kbits/s speed=1.23x    frame=10087 fps= 74 q=16.0 size= 2077952kB time=00:02:47.71 bitrate=101495.5kbits/s speed=1.23x    frame=10129 fps= 74 q=16.0 size= 2083072kB time=00:02:48.41 bitrate=101322.3kbits/s speed=1.24x    frame=10171 fps= 74 q=16.0 size= 2088192kB time=00:02:49.11 bitrate=101150.5kbits/s speed=1.24x    frame=10211 fps= 74 q=16.0 size= 2093056kB time=00:02:49.78 bitrate=100987.6kbits/s speed=1.24x    frame=10253 fps= 74 q=17.0 size= 2098688kB time=00:02:50.48 bitrate=100843.2kbits/s speed=1.24x    frame=10294 fps= 74 q=16.0 size= 2103808kB time=00:02:51.17 bitrate=100685.2kbits/s speed=1.24x    frame=10332 fps= 74 q=15.0 size= 2108672kB time=00:02:51.80 bitrate=100545.6kbits/s speed=1.24x    frame=10377 fps= 74 q=16.0 size= 2115072kB time=00:02:52.55 bitrate=100412.0kbits/s speed=1.24x    frame=10416 fps= 74 q=15.0 size= 2119936kB time=00:02:53.20 bitrate=100264.9kbits/s speed=1.24x    frame=10461 fps= 75 q=16.0 size= 2126080kB time=00:02:53.95 bitrate=100121.5kbits/s speed=1.24x    frame=10498 fps= 75 q=15.0 size= 2131456kB time=00:02:54.57 bitrate=100019.7kbits/s speed=1.24x    frame=10536 fps= 75 q=15.0 size= 2135552kB time=00:02:55.20 bitrate=99849.3kbits/s speed=1.24x    frame=10574 fps= 74 q=15.0 size= 2139392kB time=00:02:55.84 bitrate=99668.2kbits/s speed=1.24x    frame=10609 fps= 74 q=15.0 size= 2143744kB time=00:02:56.42 bitrate=99540.4kbits/s speed=1.24x    frame=10651 fps= 74 q=15.0 size= 2147840kB time=00:02:57.12 bitrate=99336.1kbits/s speed=1.24x    frame=10686 fps= 74 q=16.0 size= 2151680kB time=00:02:57.71 bitrate=99186.7kbits/s speed=1.24x    frame=10725 fps= 74 q=15.0 size= 2158336kB time=00:02:58.36 bitrate=99130.6kbits/s speed=1.24x    frame=10764 fps= 74 q=14.0 size= 2163200kB time=00:02:59.01 bitrate=98992.9kbits/s speed=1.24x    frame=10804 fps= 74 q=17.0 size= 2168576kB time=00:02:59.67 bitrate=98870.3kbits/s speed=1.24x    frame=10844 fps= 75 q=14.0 size= 2173440kB time=00:03:00.34 bitrate=98725.4kbits/s speed=1.24x    frame=10885 fps= 75 q=14.0 size= 2178048kB time=00:03:01.03 bitrate=98560.9kbits/s speed=1.24x    frame=10931 fps= 75 q=13.0 size= 2183936kB time=00:03:01.79 bitrate=98410.2kbits/s speed=1.24x    frame=10975 fps= 75 q=12.0 size= 2189568kB time=00:03:02.53 bitrate=98267.2kbits/s speed=1.24x    frame=11018 fps= 75 q=14.0 size= 2194432kB time=00:03:03.24 bitrate=98099.9kbits/s speed=1.24x    frame=11050 fps= 75 q=21.0 size= 2200832kB time=00:03:03.78 bitrate=98100.2kbits/s speed=1.24x    frame=11084 fps= 75 q=22.0 size= 2217472kB time=00:03:04.35 bitrate=98537.8kbits/s speed=1.24x    frame=11119 fps= 75 q=25.0 size= 2240000kB time=00:03:04.93 bitrate=99224.6kbits/s speed=1.24x    frame=11152 fps= 75 q=25.0 size= 2255104kB time=00:03:05.48 bitrate=99597.2kbits/s speed=1.24x    frame=11178 fps= 74 q=24.0 size= 2266112kB time=00:03:05.91 bitrate=99849.8kbits/s speed=1.24x    frame=11215 fps= 74 q=24.0 size= 2279680kB time=00:03:06.53 bitrate=100115.3kbits/s speed=1.24x    frame=11251 fps= 74 q=25.0 size= 2294272kB time=00:03:07.13 bitrate=100432.7kbits/s speed=1.24x    frame=11281 fps= 74 q=25.0 size= 2305792kB time=00:03:07.63 bitrate=100667.8kbits/s speed=1.24x    frame=11306 fps= 74 q=24.0 size= 2315520kB time=00:03:08.05 bitrate=100868.3kbits/s speed=1.23x    frame=11348 fps= 74 q=20.0 size= 2332416kB time=00:03:08.75 bitrate=101227.1kbits/s speed=1.24x    frame=11385 fps= 74 q=21.0 size= 2345984kB time=00:03:09.37 bitrate=101484.1kbits/s speed=1.24x    frame=11413 fps= 74 q=21.0 size= 2356224kB time=00:03:09.83 bitrate=101676.2kbits/s speed=1.23x    frame=11445 fps= 74 q=21.0 size= 2368768kB time=00:03:10.37 bitrate=101930.9kbits/s speed=1.23x    frame=11480 fps= 74 q=20.0 size= 2381056kB time=00:03:10.95 bitrate=102146.4kbits/s speed=1.23x    frame=11519 fps= 74 q=22.0 size= 2394368kB time=00:03:11.60 bitrate=102368.6kbits/s speed=1.23x    frame=11551 fps= 74 q=21.0 size= 2405632kB time=00:03:12.14 bitrate=102564.4kbits/s speed=1.23x    frame=11593 fps= 74 q=22.0 size= 2420992kB time=00:03:12.84 bitrate=102844.3kbits/s speed=1.23x    frame=11628 fps= 74 q=21.0 size= 2432768kB time=00:03:13.42 bitrate=103032.5kbits/s speed=1.23x    frame=11655 fps= 74 q=22.0 size= 2442240kB time=00:03:13.87 bitrate=103193.4kbits/s speed=1.23x    frame=11688 fps= 74 q=20.0 size= 2454272kB time=00:03:14.42 bitrate=103408.1kbits/s speed=1.23x    frame=11722 fps= 74 q=21.0 size= 2464256kB time=00:03:14.99 bitrate=103526.8kbits/s speed=1.23x    frame=11758 fps= 74 q=21.0 size= 2473984kB time=00:03:15.59 bitrate=103616.3kbits/s speed=1.23x    frame=11796 fps= 74 q=22.0 size= 2485760kB time=00:03:16.22 bitrate=103773.2kbits/s speed=1.23x    frame=11837 fps= 74 q=22.0 size= 2497280kB time=00:03:16.91 bitrate=103891.9kbits/s speed=1.23x    frame=11869 fps= 74 q=22.0 size= 2506752kB time=00:03:17.44 bitrate=104004.0kbits/s speed=1.23x    frame=11904 fps= 74 q=21.0 size= 2516480kB time=00:03:18.03 bitrate=104099.8kbits/s speed=1.23x    frame=11945 fps= 74 q=21.0 size= 2528000kB time=00:03:18.71 bitrate=104216.4kbits/s speed=1.23x    frame=11988 fps= 74 q=21.0 size= 2539264kB time=00:03:19.43 bitrate=104304.2kbits/s speed=1.23x    frame=12016 fps= 74 q=22.0 size= 2546688kB time=00:03:19.89 bitrate=104364.7kbits/s speed=1.23x    frame=12048 fps= 74 q=22.0 size= 2555648kB time=00:03:20.43 bitrate=104452.9kbits/s speed=1.23x    frame=12083 fps= 74 q=22.0 size= 2564352kB time=00:03:21.01 bitrate=104504.2kbits/s speed=1.23x    frame=12123 fps= 74 q=19.0 size= 2574592kB time=00:03:21.68 bitrate=104574.3kbits/s speed=1.23x    frame=12156 fps= 74 q=19.0 size= 2583552kB time=00:03:22.23 bitrate=104652.6kbits/s speed=1.23x    frame=12195 fps= 74 q=19.0 size= 2587392kB time=00:03:22.88 bitrate=104472.0kbits/s speed=1.23x    frame=12233 fps= 74 q=19.0 size= 2590720kB time=00:03:23.52 bitrate=104280.5kbits/s speed=1.23x    frame=12268 fps= 74 q=19.0 size= 2594048kB time=00:03:24.10 bitrate=104115.8kbits/s speed=1.23x    frame=12311 fps= 74 q=18.0 size= 2598400kB time=00:03:24.82 bitrate=103925.2kbits/s speed=1.23x    frame=12348 fps= 74 q=19.0 size= 2601728kB time=00:03:25.43 bitrate=103745.6kbits/s speed=1.23x    frame=12385 fps= 74 q=18.0 size= 2605312kB time=00:03:26.05 bitrate=103577.3kbits/s speed=1.23x    frame=12426 fps= 74 q=18.0 size= 2609408kB time=00:03:26.73 bitrate=103396.9kbits/s speed=1.23x    frame=12466 fps= 74 q=18.0 size= 2614016kB time=00:03:27.40 bitrate=103246.2kbits/s speed=1.23x    frame=12505 fps= 74 q=18.0 size= 2618624kB time=00:03:28.05 bitrate=103104.8kbits/s speed=1.23x    frame=12549 fps= 74 q=18.0 size= 2624000kB time=00:03:28.79 bitrate=102953.2kbits/s speed=1.23x    frame=12592 fps= 74 q=17.0 size= 2629120kB time=00:03:29.50 bitrate=102800.9kbits/s speed=1.23x    frame=12625 fps= 74 q=17.0 size= 2632704kB time=00:03:30.05 bitrate=102671.2kbits/s speed=1.23x    frame=12663 fps= 74 q=21.0 size= 2637568kB time=00:03:30.69 bitrate=102551.4kbits/s speed=1.23x    frame=12699 fps= 74 q=21.0 size= 2645248kB time=00:03:31.29 bitrate=102557.7kbits/s speed=1.23x    frame=12730 fps= 74 q=21.0 size= 2653440kB time=00:03:31.81 bitrate=102624.1kbits/s speed=1.23x    frame=12755 fps= 74 q=21.0 size= 2660352kB time=00:03:32.22 bitrate=102689.2kbits/s speed=1.23x    frame=12791 fps= 74 q=21.0 size= 2667520kB time=00:03:32.82 bitrate=102675.3kbits/s speed=1.23x    frame=12831 fps= 74 q=20.0 size= 2675456kB time=00:03:33.49 bitrate=102658.9kbits/s speed=1.23x    frame=12861 fps= 74 q=21.0 size= 2680832kB time=00:03:33.99 bitrate=102624.6kbits/s speed=1.23x    frame=12895 fps= 74 q=20.0 size= 2687488kB time=00:03:34.56 bitrate=102607.4kbits/s speed=1.23x    frame=12932 fps= 74 q=20.0 size= 2694144kB time=00:03:35.18 bitrate=102566.5kbits/s speed=1.23x    frame=12968 fps= 74 q=21.0 size= 2700800kB time=00:03:35.78 bitrate=102533.7kbits/s speed=1.23x    frame=12998 fps= 74 q=20.0 size= 2706944kB time=00:03:36.28 bitrate=102529.1kbits/s speed=1.23x    frame=13033 fps= 74 q=20.0 size= 2713088kB time=00:03:36.86 bitrate=102485.2kbits/s speed=1.23x    frame=13069 fps= 74 q=21.0 size= 2719488kB time=00:03:37.46 bitrate=102443.2kbits/s speed=1.23x    frame=13104 fps= 74 q=18.0 size= 2725632kB time=00:03:38.05 bitrate=102399.7kbits/s speed=1.23x    frame=13141 fps= 74 q=19.0 size= 2731776kB time=00:03:38.66 bitrate=102340.8kbits/s speed=1.23x    frame=13176 fps= 74 q=19.0 size= 2736896kB time=00:03:39.25 bitrate=102259.5kbits/s speed=1.23x    frame=13209 fps= 74 q=20.0 size= 2742016kB time=00:03:39.80 bitrate=102194.2kbits/s speed=1.23x    frame=13245 fps= 74 q=19.0 size= 2748416kB time=00:03:40.40 bitrate=102153.6kbits/s speed=1.23x    frame=13278 fps= 74 q=20.0 size= 2753792kB time=00:03:40.95 bitrate=102098.4kbits/s speed=1.23x    frame=13313 fps= 74 q=20.0 size= 2759424kB time=00:03:41.53 bitrate=102037.6kbits/s speed=1.23x    frame=13350 fps= 74 q=19.0 size= 2765312kB time=00:03:42.15 bitrate=101971.2kbits/s speed=1.23x    frame=13393 fps= 74 q=16.0 size= 2772224kB time=00:03:42.87 bitrate=101897.0kbits/s speed=1.23x    frame=13435 fps= 74 q=17.0 size= 2779136kB time=00:03:43.57 bitrate=101830.9kbits/s speed=1.23x    frame=13467 fps= 74 q=17.0 size= 2784256kB time=00:03:44.10 bitrate=101775.5kbits/s speed=1.23x    frame=13508 fps= 74 q=17.0 size= 2791424kB time=00:03:44.79 bitrate=101727.0kbits/s speed=1.23x    frame=13555 fps= 74 q=17.0 size= 2800384kB time=00:03:45.57 bitrate=101698.8kbits/s speed=1.23x    frame=13587 fps= 74 q=17.0 size= 2805760kB time=00:03:46.10 bitrate=101653.5kbits/s speed=1.23x    frame=13635 fps= 74 q=18.0 size= 2814464kB time=00:03:46.91 bitrate=101608.9kbits/s speed=1.23x    frame=13672 fps= 74 q=17.0 size= 2820864kB time=00:03:47.52 bitrate=101563.7kbits/s speed=1.23x    frame=13705 fps= 74 q=17.0 size= 2826240kB time=00:03:48.07 bitrate=101511.6kbits/s speed=1.23x    frame=13746 fps= 74 q=16.0 size= 2830080kB time=00:03:48.76 bitrate=101345.6kbits/s speed=1.23x    frame=13787 fps= 74 q=16.0 size= 2833664kB time=00:03:49.44 bitrate=101171.4kbits/s speed=1.23x    frame=13825 fps= 74 q=16.0 size= 2836992kB time=00:03:50.07 bitrate=101011.2kbits/s speed=1.23x    frame=13868 fps= 74 q=14.0 size= 2841088kB time=00:03:50.79 bitrate=100842.6kbits/s speed=1.23x    frame=13912 fps= 74 q=17.0 size= 2845440kB time=00:03:51.53 bitrate=100676.8kbits/s speed=1.23x    frame=13944 fps= 74 q=16.0 size= 2848512kB time=00:03:52.06 bitrate=100553.7kbits/s speed=1.23x    frame=13982 fps= 74 q=16.0 size= 2852096kB time=00:03:52.69 bitrate=100405.9kbits/s speed=1.23x    frame=14026 fps= 74 q=16.0 size= 2856192kB time=00:03:53.43 bitrate=100233.9kbits/s speed=1.23x    frame=14060 fps= 74 q=16.0 size= 2859264kB time=00:03:54.00 bitrate=100098.5kbits/s speed=1.23x    frame=14096 fps= 74 q=15.0 size= 2862848kB time=00:03:54.60 bitrate=99967.4kbits/s speed=1.23x    frame=14137 fps= 74 q=18.0 size= 2867456kB time=00:03:55.28 bitrate=99837.2kbits/s speed=1.23x    frame=14175 fps= 74 q=18.0 size= 2876672kB time=00:03:55.91 bitrate=99888.9kbits/s speed=1.23x    frame=14209 fps= 74 q=17.0 size= 2885376kB time=00:03:56.48 bitrate=99950.8kbits/s speed=1.23x    frame=14249 fps= 74 q=18.0 size= 2894080kB time=00:03:57.15 bitrate=99970.2kbits/s speed=1.23x    frame=14287 fps= 74 q=18.0 size= 2903296kB time=00:03:57.78 bitrate=100021.2kbits/s speed=1.23x    frame=14323 fps= 74 q=19.0 size= 2912256kB time=00:03:58.38 bitrate=100077.1kbits/s speed=1.23x    frame=14373 fps= 74 q=18.0 size= 2923520kB time=00:03:59.22 bitrate=100113.9kbits/s speed=1.23x    frame=14411 fps= 74 q=18.0 size= 2931968kB time=00:03:59.85 bitrate=100137.8kbits/s speed=1.23x    frame=14441 fps= 74 q=18.0 size= 2939648kB time=00:04:00.35 bitrate=100191.0kbits/s speed=1.23x    frame=14481 fps= 74 q=18.0 size= 2948608kB time=00:04:01.02 bitrate=100218.2kbits/s speed=1.23x    frame=14529 fps= 74 q=19.0 size= 2958336kB time=00:04:01.82 bitrate=100215.8kbits/s speed=1.23x    frame=14558 fps= 74 q=18.0 size= 2965504kB time=00:04:02.30 bitrate=100258.1kbits/s speed=1.23x    frame=14603 fps= 74 q=19.0 size= 2976000kB time=00:04:03.05 bitrate=100302.1kbits/s speed=1.23x    frame=14639 fps= 74 q=19.0 size= 2984960kB time=00:04:03.66 bitrate=100356.2kbits/s speed=1.23x    frame=14665 fps= 74 q=19.0 size= 2991872kB time=00:04:04.09 bitrate=100409.8kbits/s speed=1.23x    frame=14703 fps= 74 q=17.0 size= 3002112kB time=00:04:04.72 bitrate=100492.5kbits/s speed=1.23x    frame=14746 fps= 74 q=16.0 size= 3010816kB time=00:04:05.44 bitrate=100489.2kbits/s speed=1.23x    frame=14783 fps= 74 q=16.0 size= 3015424kB time=00:04:06.06 bitrate=100390.6kbits/s speed=1.23x    frame=14822 fps= 74 q=16.0 size= 3021312kB time=00:04:06.71 bitrate=100321.3kbits/s speed=1.23x    frame=14860 fps= 74 q=16.0 size= 3026432kB time=00:04:07.34 bitrate=100233.7kbits/s speed=1.23x    frame=14903 fps= 74 q=16.0 size= 3032320kB time=00:04:08.06 bitrate=100138.3kbits/s speed=1.23x    frame=14941 fps= 74 q=17.0 size= 3039232kB time=00:04:08.69 bitrate=100110.7kbits/s speed=1.23x    frame=14983 fps= 74 q=16.0 size= 3045888kB time=00:04:09.39 bitrate=100048.1kbits/s speed=1.23x    frame=15017 fps= 74 q=16.0 size= 3051776kB time=00:04:09.96 bitrate=100014.0kbits/s speed=1.23x    frame=15055 fps= 74 q=21.0 size= 3058688kB time=00:04:10.60 bitrate=99987.0kbits/s speed=1.23x    frame=15091 fps= 74 q=22.0 size= 3070720kB time=00:04:11.20 bitrate=100140.3kbits/s speed=1.23x    frame=15124 fps= 74 q=24.0 size= 3085824kB time=00:04:11.75 bitrate=100412.8kbits/s speed=1.23x    frame=15148 fps= 74 q=22.0 size= 3096576kB time=00:04:12.15 bitrate=100602.6kbits/s speed=1.23x    frame=15180 fps= 74 q=22.0 size= 3110912kB time=00:04:12.68 bitrate=100854.9kbits/s speed=1.23x    frame=15221 fps= 74 q=22.0 size= 3128320kB time=00:04:13.36 bitrate=101145.4kbits/s speed=1.23x    frame=15249 fps= 74 q=22.0 size= 3140096kB time=00:04:13.83 bitrate=101339.3kbits/s speed=1.23x    frame=15276 fps= 74 q=22.0 size= 3151872kB time=00:04:14.28 bitrate=101539.2kbits/s speed=1.23x    frame=15309 fps= 74 q=21.0 size= 3164416kB time=00:04:14.83 bitrate=101723.1kbits/s speed=1.23x    frame=15351 fps= 74 q=21.0 size= 3177216kB time=00:04:15.53 bitrate=101854.5kbits/s speed=1.23x    frame=15383 fps= 74 q=22.0 size= 3185920kB time=00:04:16.07 bitrate=101920.6kbits/s speed=1.23x    frame=15417 fps= 74 q=21.0 size= 3196416kB time=00:04:16.63 bitrate=102030.3kbits/s speed=1.23x    frame=15456 fps= 74 q=18.0 size= 3208704kB time=00:04:17.29 bitrate=102163.6kbits/s speed=1.23x    frame=15495 fps= 74 q=17.0 size= 3213056kB time=00:04:17.94 bitrate=102044.1kbits/s speed=1.23x    frame=15536 fps= 74 q=18.0 size= 3216896kB time=00:04:18.62 bitrate=101895.8kbits/s speed=1.23x    frame=15580 fps= 74 q=17.0 size= 3220992kB time=00:04:19.35 bitrate=101736.8kbits/s speed=1.23x    frame=15613 fps= 74 q=18.0 size= 3224064kB time=00:04:19.90 bitrate=101618.1kbits/s speed=1.23x    frame=15646 fps= 74 q=18.0 size= 3227648kB time=00:04:20.46 bitrate=101516.0kbits/s speed=1.23x    frame=15685 fps= 74 q=17.0 size= 3231488kB time=00:04:21.11 bitrate=101383.6kbits/s speed=1.23x    frame=15719 fps= 74 q=17.0 size= 3234816kB time=00:04:21.67 bitrate=101268.0kbits/s speed=1.23x    frame=15759 fps= 74 q=17.0 size= 3239168kB time=00:04:22.34 bitrate=101146.3kbits/s speed=1.23x    frame=15812 fps= 74 q=16.0 size= 3248128kB time=00:04:23.22 bitrate=101085.4kbits/s speed=1.23x    frame=15847 fps= 74 q=17.0 size= 3252736kB time=00:04:23.81 bitrate=101004.7kbits/s speed=1.23x    frame=15883 fps= 74 q=16.0 size= 3258880kB time=00:04:24.41 bitrate=100965.6kbits/s speed=1.23x    frame=15922 fps= 74 q=15.0 size= 3264768kB time=00:04:25.06 bitrate=100899.8kbits/s speed=1.23x    frame=15960 fps= 74 q=15.0 size= 3270656kB time=00:04:25.69 bitrate=100840.6kbits/s speed=1.23x    frame=16001 fps= 74 q=19.0 size= 3278080kB time=00:04:26.38 bitrate=100809.9kbits/s speed=1.23x    frame=16044 fps= 74 q=18.0 size= 3285248kB time=00:04:27.10 bitrate=100759.0kbits/s speed=1.23x    frame=16077 fps= 74 q=17.0 size= 3290368kB time=00:04:27.65 bitrate=100708.5kbits/s speed=1.23x    frame=16110 fps= 74 q=18.0 size= 3295232kB time=00:04:28.20 bitrate=100650.3kbits/s speed=1.23x    frame=16149 fps= 74 q=17.0 size= 3301632kB time=00:04:28.85 bitrate=100601.7kbits/s speed=1.23x    frame=16190 fps= 74 q=16.0 size= 3308288kB time=00:04:29.53 bitrate=100548.7kbits/s speed=1.23x    frame=16228 fps= 74 q=17.0 size= 3313920kB time=00:04:30.16 bitrate=100483.5kbits/s speed=1.23x    frame=16265 fps= 74 q=17.0 size= 3320320kB time=00:04:30.78 bitrate=100448.1kbits/s speed=1.23x    frame=16305 fps= 74 q=16.0 size= 3326208kB time=00:04:31.45 bitrate=100378.9kbits/s speed=1.23x    frame=16346 fps= 74 q=15.0 size= 3332608kB time=00:04:32.13 bitrate=100319.2kbits/s speed=1.23x    frame=16385 fps= 74 q=16.0 size= 3339264kB time=00:04:32.78 bitrate=100279.8kbits/s speed=1.23x    frame=16425 fps= 74 q=16.0 size= 3345408kB time=00:04:33.45 bitrate=100219.1kbits/s speed=1.23x    frame=16467 fps= 74 q=16.0 size= 3352064kB time=00:04:34.15 bitrate=100161.9kbits/s speed=1.23x    frame=16519 fps= 74 q=15.0 size= 3361024kB time=00:04:35.02 bitrate=100112.8kbits/s speed=1.23x    frame=16557 fps= 74 q=15.0 size= 3366144kB time=00:04:35.65 bitrate=100034.7kbits/s speed=1.23x    frame=16587 fps= 74 q=15.0 size= 3370752kB time=00:04:36.15 bitrate=99990.1kbits/s speed=1.23x    frame=16626 fps= 74 q=16.0 size= 3377152kB time=00:04:36.80 bitrate=99944.5kbits/s speed=1.23x    frame=16667 fps= 74 q=17.0 size= 3382784kB time=00:04:37.49 bitrate=99864.4kbits/s speed=1.23x    frame=16709 fps= 74 q=15.0 size= 3387904kB time=00:04:38.19 bitrate=99763.6kbits/s speed=1.23x    frame=16751 fps= 74 q=15.0 size= 3393024kB time=00:04:38.89 bitrate=99663.4kbits/s speed=1.23x    frame=16795 fps= 74 q=15.0 size= 3397632kB time=00:04:39.62 bitrate=99536.8kbits/s speed=1.23x    frame=16837 fps= 74 q=14.0 size= 3402496kB time=00:04:40.33 bitrate=99430.1kbits/s speed=1.23x    frame=16873 fps= 74 q=21.0 size= 3407872kB time=00:04:40.93 bitrate=99374.3kbits/s speed=1.23x    frame=16909 fps= 74 q=21.0 size= 3421440kB time=00:04:41.53 bitrate=99557.1kbits/s speed=1.23x    frame=16935 fps= 74 q=20.0 size= 3434496kB time=00:04:41.96 bitrate=99783.3kbits/s speed=1.23x    frame=16962 fps= 74 q=21.0 size= 3446272kB time=00:04:42.41 bitrate=99965.7kbits/s speed=1.23x    frame=16997 fps= 74 q=21.0 size= 3459584kB time=00:04:42.99 bitrate=100144.8kbits/s speed=1.23x    frame=17040 fps= 74 q=22.0 size= 3476992kB time=00:04:43.71 bitrate=100394.2kbits/s speed=1.23x    frame=17066 fps= 74 q=22.0 size= 3487488kB time=00:04:44.15 bitrate=100543.5kbits/s speed=1.23x    frame=17104 fps= 74 q=22.0 size= 3502592kB time=00:04:44.78 bitrate=100754.2kbits/s speed=1.23x    frame=17142 fps= 74 q=22.0 size= 3516672kB time=00:04:45.41 bitrate=100934.5kbits/s speed=1.23x    frame=17174 fps= 74 q=23.0 size= 3528960kB time=00:04:45.95 bitrate=101098.1kbits/s speed=1.23x    frame=17208 fps= 74 q=23.0 size= 3543040kB time=00:04:46.51 bitrate=101300.5kbits/s speed=1.23x    frame=17247 fps= 74 q=23.0 size= 3558912kB time=00:04:47.17 bitrate=101523.8kbits/s speed=1.23x    frame=17279 fps= 74 q=23.0 size= 3572224kB time=00:04:47.70 bitrate=101714.4kbits/s speed=1.23x    frame=17302 fps= 74 q=23.0 size= 3581440kB time=00:04:48.08 bitrate=101841.0kbits/s speed=1.23x    frame=17343 fps= 74 q=23.0 size= 3598080kB time=00:04:48.77 bitrate=102071.8kbits/s speed=1.23x    frame=17379 fps= 74 q=24.0 size= 3611648kB time=00:04:49.37 bitrate=102244.1kbits/s speed=1.23x    frame=17411 fps= 74 q=23.0 size= 3623680kB time=00:04:49.90 bitrate=102395.8kbits/s speed=1.23x    frame=17439 fps= 74 q=20.0 size= 3634944kB time=00:04:50.37 bitrate=102548.8kbits/s speed=1.22x    frame=17488 fps= 74 q=20.0 size= 3646464kB time=00:04:51.19 bitrate=102585.0kbits/s speed=1.23x    frame=17525 fps= 74 q=23.0 size= 3653632kB time=00:04:51.80 bitrate=102569.3kbits/s speed=1.23x    frame=17559 fps= 74 q=22.0 size= 3661824kB time=00:04:52.37 bitrate=102599.8kbits/s speed=1.23x    frame=17597 fps= 74 q=21.0 size= 3671040kB time=00:04:53.00 bitrate=102635.5kbits/s speed=1.23x    frame=17641 fps= 74 q=21.0 size= 3680768kB time=00:04:53.74 bitrate=102650.3kbits/s speed=1.23x    frame=17675 fps= 74 q=23.0 size= 3688960kB time=00:04:54.31 bitrate=102680.5kbits/s speed=1.23x    frame=17708 fps= 74 q=22.0 size= 3695872kB time=00:04:54.86 bitrate=102680.8kbits/s speed=1.23x    frame=17746 fps= 74 q=22.0 size= 3703808kB time=00:04:55.49 bitrate=102680.5kbits/s speed=1.23x    frame=17777 fps= 74 q=22.0 size= 3711744kB time=00:04:56.01 bitrate=102720.7kbits/s speed=1.22x    frame=17808 fps= 74 q=21.0 size= 3717888kB time=00:04:56.52 bitrate=102711.3kbits/s speed=1.22x    frame=17844 fps= 74 q=20.0 size= 3724032kB time=00:04:57.13 bitrate=102673.1kbits/s speed=1.22x    frame=17880 fps= 74 q=20.0 size= 3729664kB time=00:04:57.73 bitrate=102620.9kbits/s speed=1.22x    frame=17916 fps= 74 q=20.0 size= 3734784kB time=00:04:58.33 bitrate=102554.9kbits/s speed=1.22x    frame=17964 fps= 74 q=20.0 size= 3741696kB time=00:04:59.13 bitrate=102469.7kbits/s speed=1.22x    frame=18001 fps= 74 q=21.0 size= 3746304kB time=00:04:59.74 bitrate=102384.6kbits/s speed=1.22x    frame=18025 fps= 73 q=22.0 size= 3749632kB time=00:05:00.14 bitrate=102338.8kbits/s speed=1.22x    frame=18059 fps= 73 q=22.0 size= 3758080kB time=00:05:00.71 bitrate=102375.9kbits/s speed=1.22x    frame=18099 fps= 73 q=23.0 size= 3769088kB time=00:05:01.38 bitrate=102448.4kbits/s speed=1.22x    frame=18132 fps= 73 q=22.0 size= 3778048kB time=00:05:01.93 bitrate=102504.7kbits/s speed=1.22x    frame=18169 fps= 73 q=21.0 size= 3788032kB time=00:05:02.55 bitrate=102565.9kbits/s speed=1.22x    frame=18207 fps= 73 q=20.0 size= 3795712kB time=00:05:03.18 bitrate=102559.0kbits/s speed=1.22x    frame=18246 fps= 73 q=22.0 size= 3801344kB time=00:05:03.83 bitrate=102491.2kbits/s speed=1.22x    frame=18275 fps= 73 q=20.0 size= 3807232kB time=00:05:04.32 bitrate=102486.8kbits/s speed=1.22x    frame=18311 fps= 73 q=24.0 size= 3812608kB time=00:05:04.92 bitrate=102429.3kbits/s speed=1.22x    frame=18354 fps= 73 q=24.0 size= 3825920kB time=00:05:05.63 bitrate=102545.7kbits/s speed=1.22x    frame=18378 fps= 73 q=24.0 size= 3835392kB time=00:05:06.03 bitrate=102665.1kbits/s speed=1.22x    frame=18409 fps= 73 q=24.0 size= 3847936kB time=00:05:06.55 bitrate=102827.1kbits/s speed=1.22x    frame=18449 fps= 73 q=24.0 size= 3863040kB time=00:05:07.22 bitrate=103006.5kbits/s speed=1.22x    frame=18481 fps= 73 q=24.0 size= 3874560kB time=00:05:07.75 bitrate=103134.4kbits/s speed=1.22x    frame=18507 fps= 73 q=24.0 size= 3884288kB time=00:05:08.19 bitrate=103247.9kbits/s speed=1.22x    frame=18542 fps= 73 q=24.0 size= 3897344kB time=00:05:08.77 bitrate=103399.0kbits/s speed=1.22x    frame=18574 fps= 73 q=24.0 size= 3908352kB time=00:05:09.30 bitrate=103512.1kbits/s speed=1.22x    frame=18608 fps= 73 q=24.0 size= 3919872kB time=00:05:09.87 bitrate=103627.1kbits/s speed=1.22x    frame=18641 fps= 73 q=24.0 size= 3931648kB time=00:05:10.42 bitrate=103754.1kbits/s speed=1.22x    frame=18678 fps= 73 q=24.0 size= 3943680kB time=00:05:11.04 bitrate=103865.1kbits/s speed=1.22x    frame=18715 fps= 73 q=24.0 size= 3955968kB time=00:05:11.66 bitrate=103982.4kbits/s speed=1.22x    frame=18745 fps= 73 q=25.0 size= 3965696kB time=00:05:12.16 bitrate=104070.9kbits/s speed=1.22x    frame=18784 fps= 73 q=25.0 size= 3978752kB time=00:05:12.81 bitrate=104196.4kbits/s speed=1.22x    frame=18808 fps= 73 q=-1.0 Lsize= 3996938kB time=00:05:13.76 bitrate=104355.4kbits/s speed=1.22x    
video:3996827kB audio:0kB subtitle:0kB other streams:0kB global headers:0kB muxing overhead: 0.002775%
[libx264 @ 0x561a834b62c0] frame I:157   Avg QP:14.91  size:1147588
[libx264 @ 0x561a834b62c0] frame P:18651 Avg QP:17.90  size:209778
[libx264 @ 0x561a834b62c0] mb I  I16..4: 100.0%  0.0%  0.0%
[libx264 @ 0x561a834b62c0] mb P  I16..4:  5.3%  0.0%  0.0%  P16..4: 58.1%  0.0%  0.0%  0.0%  0.0%    skip:36.7%
[libx264 @ 0x561a834b62c0] final ratefactor: 17.23
[libx264 @ 0x561a834b62c0] coded y,uvDC,uvAC intra: 26.7% 52.5% 25.0% inter: 27.3% 34.7% 8.3%
[libx264 @ 0x561a834b62c0] i16 v,h,dc,p: 35% 28% 13% 24%
[libx264 @ 0x561a834b62c0] i8c dc,h,v,p: 40% 25% 19% 16%
[libx264 @ 0x561a834b62c0] kb/s:104346.95
